<?xml version="1.0" standalone="no"?><!DOCTYPE svg PUBLIC "-//W3C//DTD SVG 1.1//EN" "http://www.w3.org/Graphics/SVG/1.1/DTD/svg11.dtd"><svg t="1740914456821" class="icon" viewBox="0 0 1024 1024" version="1.1" xmlns="http://www.w3.org/2000/svg" p-id="78809" xmlns:xlink="http://www.w3.org/1999/xlink" width="64" height="64"><path d="M604.928 542.976v473.949091a895.301818 895.301818 0 0 1-93.905455 5.12C228.701091 1022.045091 0 893.649455 0 734.603636V542.952727h604.904727z" fill="#FFA000" p-id="78810"></path><path d="M1022.021818 447.162182v287.418182c0 141.195636-179.479273 258.094545-417.093818 282.344727V447.162182h417.093818z" fill="#388E3C" p-id="78811"></path><path d="M778.658909 42.821818l-267.636364 244.642909H0C0 128.418909 228.701091 0.046545 511.022545 0.046545c90.996364-0.861091 181.457455 13.614545 267.636364 42.775273z" fill="#64B5F6" p-id="78812"></path><path d="M990.091636 447.162182c0 141.172364-179.502545 258.048-417.117091 282.321454l-93.882181-282.321454 267.636363-244.642909c146.269091 50.455273 243.362909 141.172364 243.362909 244.642909z" fill="#81C784" p-id="78813"></path><path d="M604.928 825.297455a895.301818 895.301818 0 0 1-93.905455 5.12C228.701091 830.417455 0 702.021818 0 542.952727h510.999273l93.905454 282.321455z" fill="#FFD54F" p-id="78814"></path><path d="M0 287.464727h511.022545v255.511273H0z" fill="#2196F3" p-id="78815"></path><path d="M778.658909 42.821818v127.767273l-267.636364 244.642909v-127.767273z" fill="#1E88E5" p-id="78816"></path><path d="M511.022545 415.232v127.744l93.905455 282.321455v-127.744z" fill="#4CAF50" p-id="78817"></path><path d="M606.836364 729.483636c-13.242182 0-25.088-8.145455-29.835637-20.48l-95.813818-250.414545a31.930182 31.930182 0 0 1 8.424727-35.188364l244.014546-219.741091c8.471273-7.447273 20.247273-9.867636 30.976-6.376727 158.789818 49.501091 257.419636 145.384727 257.419636 249.879273 0 139.869091-169.262545 255.883636-411.741091 282.135273-1.163636 0.116364-2.304 0.186182-3.444363 0.186181z m-58.135273-273.245091l79.010909 206.49891c189.905455-26.507636 330.426182-117.015273 330.426182-215.575273 0-72.238545-74.402909-141.684364-195.514182-183.575273l-213.922909 192.651636zM511.022545 319.418182H31.953455a31.930182 31.930182 0 0 1-31.930182-31.953455C0 126.324364 224.465455 0.046545 511.022545 0.046545a842.146909 842.146909 0 0 1 253.835637 37.28291 31.930182 31.930182 0 0 1 11.566545 54.178909l-244.014545 219.717818c-5.864727 5.282909-13.498182 8.192-21.410909 8.192zM68.654545 255.534545h430.08l191.627637-172.450909a818.152727 818.152727 0 0 0-179.362909-19.176727c-220.765091 0-410.274909 84.945455-442.344728 191.627636z" fill="#0F121D" p-id="78818"></path><path d="M511.022545 830.417455C224.465455 830.417455 0 704.139636 0 542.952727c0-17.640727 14.289455-31.930182 31.930182-31.930182h479.069091c13.218909 0 25.088 8.145455 29.835636 20.48l95.813818 250.414546a31.930182 31.930182 0 0 1-26.530909 43.170909 966.260364 966.260364 0 0 1-99.141818 5.306182zM68.654545 574.906182c31.953455 106.682182 221.579636 191.627636 442.344728 191.627636 16.570182 0 33.605818-0.512 51.106909-1.536l-73.076364-190.091636H68.654545z" fill="#0F121D" p-id="78819"></path><path d="M511.022545 1022.045091C224.465455 1022.045091 0 895.767273 0 734.603636a31.930182 31.930182 0 1 1 63.860364 0c0 121.367273 204.8 223.557818 447.138909 223.557819S958.138182 855.970909 958.138182 734.603636a31.930182 31.930182 0 1 1 63.883636 0c0 161.163636-224.465455 287.418182-510.999273 287.418182z" fill="#0F121D" p-id="78820"></path><path d="M990.091636 766.533818a31.930182 31.930182 0 0 1-31.953454-31.930182V479.092364a31.930182 31.930182 0 1 1 63.883636 0v255.511272c0 17.640727-14.289455 31.930182-31.930182 31.930182zM31.953455 766.533818a31.930182 31.930182 0 0 1-31.930182-31.930182V287.464727a31.930182 31.930182 0 1 1 63.860363 0v447.138909c0 17.640727-14.289455 31.930182-31.930181 31.930182zM606.836364 1016.925091a31.930182 31.930182 0 0 1-31.930182-31.930182V697.553455a31.930182 31.930182 0 1 1 63.860363 0v287.418181c0 17.664-14.289455 31.953455-31.930181 31.953455zM511.022545 574.906182a31.930182 31.930182 0 0 1-31.930181-31.930182V287.464727a31.930182 31.930182 0 1 1 63.860363 0v255.511273c0 17.640727-14.289455 31.930182-31.930182 31.930182zM755.013818 259.374545a31.930182 31.930182 0 0 1-31.930182-31.953454V67.746909a31.930182 31.930182 0 1 1 63.883637 0v159.674182c0 17.640727-14.312727 31.953455-31.953455 31.953454z" fill="#0F121D" p-id="78821"></path></svg>